<?xml version="1.0" encoding="utf-8"?><svg width="auto" height="4770" style="overflow:visible " version="1.1" xmlns="http://www.w3.org/2000/svg"><rect x="20" y="20" width="200" height="40" style="fill:white;stroke:black;stroke-width:1" /><text x="30" y="30" font-size="10" style="fill:blue">circuitos</text><rect x="240" y="20" width="200" height="40" style="fill:white;stroke:black;stroke-width:1" /><text x="250" y="30" font-size="10" style="fill:blue">circuito</text><path d="M220 40 C240 40 220 40 240 40" style="fill:transparent;stroke:black" /><text x="250" y="40" font-size="8" style="fill:black">nombre: Shanghai</text><text x="250" y="50" font-size="8" style="fill:black">longitud: 5.451</text><text x="250" y="60" font-size="8" style="fill:black">anchura: 4.2</text><text x="250" y="70" font-size="8" style="fill:black">fecha2024: 2024-04-19</text><text x="250" y="80" font-size="8" style="fill:black">horaes: 9:00</text><text x="250" y="90" font-size="8" style="fill:black">nvueltas: 56</text><text x="250" y="100" font-size="8" style="fill:black">localidad: Shanghai</text><text x="250" y="110" font-size="8" style="fill:black">pais: China</text><rect x="460" y="20" width="200" height="40" style="fill:white;stroke:black;stroke-width:1" /><text x="470" y="30" font-size="10" style="fill:blue">referencias</text><path d="M440 40 C460 40 440 40 460 40" style="fill:transparent;stroke:black" /><rect x="680" y="20" width="200" height="40" style="fill:white;stroke:black;stroke-width:1" /><text x="690" y="30" font-size="10" style="fill:blue">referencia</text><path d="M660 40 C680 40 660 40 680 40" style="fill:transparent;stroke:black" /><text x="690" y="40" font-size="8" style="fill:black">ref: https://es.wikipedia.org/wiki/Gran_Premio_de_China</text><rect x="680" y="70" width="200" height="40" style="fill:white;stroke:black;stroke-width:1" /><text x="690" y="80" font-size="10" style="fill:blue">referencia</text><path d="M660 40 C680 40 660 90 680 90" style="fill:transparent;stroke:black" /><text x="690" y="90" font-size="8" style="fill:black">ref: https://www.andaluz78slot.com/es/blog/disenos-de-circuitos/formula-1-gp-shanghai-circuito-internacional-de-shanghai</text><rect x="680" y="120" width="200" height="40" style="fill:white;stroke:black;stroke-width:1" /><text x="690" y="130" font-size="10" style="fill:blue">referencia</text><path d="M660 40 C680 40 660 140 680 140" style="fill:transparent;stroke:black" /><text x="690" y="140" font-size="8" style="fill:black">ref: https://lebalap.academy/f1/circuito-internacional-de-shanghai</text><rect x="460" y="220" width="200" height="40" style="fill:white;stroke:black;stroke-width:1" /><text x="470" y="230" font-size="10" style="fill:blue">imagenes</text><path d="M440 40 C460 40 440 240 460 240" style="fill:transparent;stroke:black" /><rect x="680" y="220" width="200" height="40" style="fill:white;stroke:black;stroke-width:1" /><text x="690" y="230" font-size="10" style="fill:blue">imagen</text><path d="M660 240 C680 240 660 240 680 240" style="fill:transparent;stroke:black" /><text x="690" y="240" font-size="8" style="fill:black">foto: aerea.jpg</text><rect x="680" y="270" width="200" height="40" style="fill:white;stroke:black;stroke-width:1" /><text x="690" y="280" font-size="10" style="fill:blue">imagen</text><path d="M660 240 C680 240 660 290 680 290" style="fill:transparent;stroke:black" /><text x="690" y="290" font-size="8" style="fill:black">foto: parrilla.jpg</text><rect x="680" y="320" width="200" height="40" style="fill:white;stroke:black;stroke-width:1" /><text x="690" y="330" font-size="10" style="fill:blue">imagen</text><path d="M660 240 C680 240 660 340 680 340" style="fill:transparent;stroke:black" /><text x="690" y="340" font-size="8" style="fill:black">foto: primerplano.jpg</text><rect x="680" y="370" width="200" height="40" style="fill:white;stroke:black;stroke-width:1" /><text x="690" y="380" font-size="10" style="fill:blue">imagen</text><path d="M660 240 C680 240 660 390 680 390" style="fill:transparent;stroke:black" /><text x="690" y="390" font-size="8" style="fill:black">foto: primerapersona.jpg</text><rect x="460" y="470" width="200" height="40" style="fill:white;stroke:black;stroke-width:1" /><text x="470" y="480" font-size="10" style="fill:blue">videos</text><path d="M440 40 C460 40 440 490 460 490" style="fill:transparent;stroke:black" /><rect x="680" y="470" width="200" height="40" style="fill:white;stroke:black;stroke-width:1" /><text x="690" y="480" font-size="10" style="fill:blue">video</text><path d="M660 490 C680 490 660 490 680 490" style="fill:transparent;stroke:black" /><text x="690" y="490" font-size="8" style="fill:black">titulo: video.mp4</text><rect x="460" y="570" width="200" height="40" style="fill:white;stroke:black;stroke-width:1" /><text x="470" y="580" font-size="10" style="fill:blue">coordenada</text><path d="M440 40 C460 40 440 590 460 590" style="fill:transparent;stroke:black" /><text x="470" y="590" font-size="8" style="fill:black">longitud: 121.2203</text><text x="470" y="600" font-size="8" style="fill:black">altitud: 3</text><text x="470" y="610" font-size="8" style="fill:black">latitud: 31.3383</text><rect x="460" y="620" width="200" height="40" style="fill:white;stroke:black;stroke-width:1" /><text x="470" y="630" font-size="10" style="fill:blue">tramos</text><path d="M440 40 C460 40 440 640 460 640" style="fill:transparent;stroke:black" /><rect x="680" y="620" width="200" height="40" style="fill:white;stroke:black;stroke-width:1" /><text x="690" y="630" font-size="10" style="fill:blue">tramo</text><path d="M660 640 C680 640 660 640 680 640" style="fill:transparent;stroke:black" /><text x="690" y="640" font-size="8" style="fill:black">distancia: 26.646470590575074</text><text x="690" y="650" font-size="8" style="fill:black">numerotramo: 1</text><rect x="900" y="620" width="200" height="40" style="fill:white;stroke:black;stroke-width:1" /><text x="910" y="630" font-size="10" style="fill:blue">coordenada</text><path d="M880 640 C900 640 880 640 900 640" style="fill:transparent;stroke:black" /><text x="910" y="640" font-size="8" style="fill:black">latitud: 31.33778</text><text x="910" y="650" font-size="8" style="fill:black">longitud: 121.21639</text><text x="910" y="660" font-size="8" style="fill:black">altitud: 4</text><rect x="680" y="720" width="200" height="40" style="fill:white;stroke:black;stroke-width:1" /><text x="690" y="730" font-size="10" style="fill:blue">tramo</text><path d="M660 640 C680 640 660 740 680 740" style="fill:transparent;stroke:black" /><text x="690" y="740" font-size="8" style="fill:black">distancia: 25.694810927640738</text><text x="690" y="750" font-size="8" style="fill:black">numerotramo: 2</text><rect x="900" y="720" width="200" height="40" style="fill:white;stroke:black;stroke-width:1" /><text x="910" y="730" font-size="10" style="fill:blue">coordenada</text><path d="M880 740 C900 740 880 740 900 740" style="fill:transparent;stroke:black" /><text x="910" y="740" font-size="8" style="fill:black">latitud: 31.33778</text><text x="910" y="750" font-size="8" style="fill:black">longitud: 121.21667</text><text x="910" y="760" font-size="8" style="fill:black">altitud: 3</text><rect x="680" y="820" width="200" height="40" style="fill:white;stroke:black;stroke-width:1" /><text x="690" y="830" font-size="10" style="fill:blue">tramo</text><path d="M660 640 C680 640 660 840 680 840" style="fill:transparent;stroke:black" /><text x="690" y="840" font-size="8" style="fill:black">distancia: 31.045079952276723</text><text x="690" y="850" font-size="8" style="fill:black">numerotramo: 3</text><rect x="900" y="820" width="200" height="40" style="fill:white;stroke:black;stroke-width:1" /><text x="910" y="830" font-size="10" style="fill:blue">coordenada</text><path d="M880 840 C900 840 880 840 900 840" style="fill:transparent;stroke:black" /><text x="910" y="840" font-size="8" style="fill:black">latitud: 31.33778</text><text x="910" y="850" font-size="8" style="fill:black">longitud: 121.21694</text><text x="910" y="860" font-size="8" style="fill:black">altitud: 2</text><rect x="680" y="920" width="200" height="40" style="fill:white;stroke:black;stroke-width:1" /><text x="690" y="930" font-size="10" style="fill:blue">tramo</text><path d="M660 640 C680 640 660 940 680 940" style="fill:transparent;stroke:black" /><text x="690" y="940" font-size="8" style="fill:black">distancia: 31.045078597548347</text><text x="690" y="950" font-size="8" style="fill:black">numerotramo: 4</text><rect x="900" y="920" width="200" height="40" style="fill:white;stroke:black;stroke-width:1" /><text x="910" y="930" font-size="10" style="fill:blue">coordenada</text><path d="M880 940 C900 940 880 940 900 940" style="fill:transparent;stroke:black" /><text x="910" y="940" font-size="8" style="fill:black">latitud: 31.33750</text><text x="910" y="950" font-size="8" style="fill:black">longitud: 121.21694</text><text x="910" y="960" font-size="8" style="fill:black">altitud: 2</text><rect x="680" y="1020" width="200" height="40" style="fill:white;stroke:black;stroke-width:1" /><text x="690" y="1030" font-size="10" style="fill:blue">tramo</text><path d="M660 640 C680 640 660 1040 680 1040" style="fill:transparent;stroke:black" /><text x="690" y="1040" font-size="8" style="fill:black">distancia: 40.912610873648745</text><text x="690" y="1050" font-size="8" style="fill:black">numerotramo: 5</text><rect x="900" y="1020" width="200" height="40" style="fill:white;stroke:black;stroke-width:1" /><text x="910" y="1030" font-size="10" style="fill:blue">coordenada</text><path d="M880 1040 C900 1040 880 1040 900 1040" style="fill:transparent;stroke:black" /><text x="910" y="1040" font-size="8" style="fill:black">latitud: 31.33722</text><text x="910" y="1050" font-size="8" style="fill:black">longitud: 121.21694</text><text x="910" y="1060" font-size="8" style="fill:black">altitud: 2</text><rect x="680" y="1120" width="200" height="40" style="fill:white;stroke:black;stroke-width:1" /><text x="690" y="1130" font-size="10" style="fill:blue">tramo</text><path d="M660 640 C680 640 660 1140 680 1140" style="fill:transparent;stroke:black" /><text x="690" y="1140" font-size="8" style="fill:black">distancia: 26.646707301793736</text><text x="690" y="1150" font-size="8" style="fill:black">numerotramo: 6</text><rect x="900" y="1120" width="200" height="40" style="fill:white;stroke:black;stroke-width:1" /><text x="910" y="1130" font-size="10" style="fill:blue">coordenada</text><path d="M880 1140 C900 1140 880 1140 900 1140" style="fill:transparent;stroke:black" /><text x="910" y="1140" font-size="8" style="fill:black">latitud: 31.33694</text><text x="910" y="1150" font-size="8" style="fill:black">longitud: 121.21722</text><text x="910" y="1160" font-size="8" style="fill:black">altitud: 2</text><rect x="680" y="1220" width="200" height="40" style="fill:white;stroke:black;stroke-width:1" /><text x="690" y="1230" font-size="10" style="fill:blue">tramo</text><path d="M660 640 C680 640 660 1240 680 1240" style="fill:transparent;stroke:black" /><text x="690" y="1240" font-size="8" style="fill:black">distancia: 40.912610873648745</text><text x="690" y="1250" font-size="8" style="fill:black">numerotramo: 7</text><rect x="900" y="1220" width="200" height="40" style="fill:white;stroke:black;stroke-width:1" /><text x="910" y="1230" font-size="10" style="fill:blue">coordenada</text><path d="M880 1240 C900 1240 880 1240 900 1240" style="fill:transparent;stroke:black" /><text x="910" y="1240" font-size="8" style="fill:black">latitud: 31.33694</text><text x="910" y="1250" font-size="8" style="fill:black">longitud: 121.21750</text><text x="910" y="1260" font-size="8" style="fill:black">altitud: 2</text><rect x="680" y="1320" width="200" height="40" style="fill:white;stroke:black;stroke-width:1" /><text x="690" y="1330" font-size="10" style="fill:blue">tramo</text><path d="M660 640 C680 640 660 1340 680 1340" style="fill:transparent;stroke:black" /><text x="690" y="1340" font-size="8" style="fill:black">distancia: 62.09015854985785</text><text x="690" y="1350" font-size="8" style="fill:black">numerotramo: 8</text><rect x="900" y="1320" width="200" height="40" style="fill:white;stroke:black;stroke-width:1" /><text x="910" y="1330" font-size="10" style="fill:blue">coordenada</text><path d="M880 1340 C900 1340 880 1340 900 1340" style="fill:transparent;stroke:black" /><text x="910" y="1340" font-size="8" style="fill:black">latitud: 31.33722</text><text x="910" y="1350" font-size="8" style="fill:black">longitud: 121.21778</text><text x="910" y="1360" font-size="8" style="fill:black">altitud: 2</text><rect x="680" y="1420" width="200" height="40" style="fill:white;stroke:black;stroke-width:1" /><text x="690" y="1430" font-size="10" style="fill:blue">tramo</text><path d="M660 640 C680 640 660 1440 680 1440" style="fill:transparent;stroke:black" /><text x="690" y="1440" font-size="8" style="fill:black">distancia: 162.18838396431045</text><text x="690" y="1450" font-size="8" style="fill:black">numerotramo: 9</text><rect x="900" y="1420" width="200" height="40" style="fill:white;stroke:black;stroke-width:1" /><text x="910" y="1430" font-size="10" style="fill:blue">coordenada</text><path d="M880 1440 C900 1440 880 1440 900 1440" style="fill:transparent;stroke:black" /><text x="910" y="1440" font-size="8" style="fill:black">latitud: 31.33778</text><text x="910" y="1450" font-size="8" style="fill:black">longitud: 121.21778</text><text x="910" y="1460" font-size="8" style="fill:black">altitud: 3</text><rect x="680" y="1520" width="200" height="40" style="fill:white;stroke:black;stroke-width:1" /><text x="690" y="1530" font-size="10" style="fill:blue">tramo</text><path d="M660 640 C680 640 660 1540 680 1540" style="fill:transparent;stroke:black" /><text x="690" y="1540" font-size="8" style="fill:black">distancia: 140.09678006669282</text><text x="690" y="1550" font-size="8" style="fill:black">numerotramo: 10</text><rect x="900" y="1520" width="200" height="40" style="fill:white;stroke:black;stroke-width:1" /><text x="910" y="1530" font-size="10" style="fill:blue">coordenada</text><path d="M880 1540 C900 1540 880 1540 900 1540" style="fill:transparent;stroke:black" /><text x="910" y="1540" font-size="8" style="fill:black">latitud: 31.33889</text><text x="910" y="1550" font-size="8" style="fill:black">longitud: 121.21667</text><text x="910" y="1560" font-size="8" style="fill:black">altitud: 4</text><rect x="680" y="1620" width="200" height="40" style="fill:white;stroke:black;stroke-width:1" /><text x="690" y="1630" font-size="10" style="fill:blue">tramo</text><path d="M660 640 C680 640 660 1640 680 1640" style="fill:transparent;stroke:black" /><text x="690" y="1640" font-size="8" style="fill:black">distancia: 258.7979906541536</text><text x="690" y="1650" font-size="8" style="fill:black">numerotramo: 11</text><rect x="900" y="1620" width="200" height="40" style="fill:white;stroke:black;stroke-width:1" /><text x="910" y="1630" font-size="10" style="fill:blue">coordenada</text><path d="M880 1640 C900 1640 880 1640 900 1640" style="fill:transparent;stroke:black" /><text x="910" y="1640" font-size="8" style="fill:black">latitud: 31.33972</text><text x="910" y="1650" font-size="8" style="fill:black">longitud: 121.21556</text><text x="910" y="1660" font-size="8" style="fill:black">altitud: 4</text><rect x="680" y="1720" width="200" height="40" style="fill:white;stroke:black;stroke-width:1" /><text x="690" y="1730" font-size="10" style="fill:blue">tramo</text><path d="M660 640 C680 640 660 1740 680 1740" style="fill:transparent;stroke:black" /><text x="690" y="1740" font-size="8" style="fill:black">distancia: 26.645298230034786</text><text x="690" y="1750" font-size="8" style="fill:black">numerotramo: 12</text><rect x="900" y="1720" width="200" height="40" style="fill:white;stroke:black;stroke-width:1" /><text x="910" y="1730" font-size="10" style="fill:blue">coordenada</text><path d="M880 1740 C900 1740 880 1740 900 1740" style="fill:transparent;stroke:black" /><text x="910" y="1740" font-size="8" style="fill:black">latitud: 31.34194</text><text x="910" y="1750" font-size="8" style="fill:black">longitud: 121.21472</text><text x="910" y="1760" font-size="8" style="fill:black">altitud: 4</text><rect x="680" y="1820" width="200" height="40" style="fill:white;stroke:black;stroke-width:1" /><text x="690" y="1830" font-size="10" style="fill:blue">tramo</text><path d="M660 640 C680 640 660 1840 680 1840" style="fill:transparent;stroke:black" /><text x="690" y="1840" font-size="8" style="fill:black">distancia: 61.12348669564069</text><text x="690" y="1850" font-size="8" style="fill:black">numerotramo: 13</text><rect x="900" y="1820" width="200" height="40" style="fill:white;stroke:black;stroke-width:1" /><text x="910" y="1830" font-size="10" style="fill:blue">coordenada</text><path d="M880 1840 C900 1840 880 1840 900 1840" style="fill:transparent;stroke:black" /><text x="910" y="1840" font-size="8" style="fill:black">latitud: 31.34194</text><text x="910" y="1850" font-size="8" style="fill:black">longitud: 121.21500</text><text x="910" y="1860" font-size="8" style="fill:black">altitud: 4</text><rect x="680" y="1920" width="200" height="40" style="fill:white;stroke:black;stroke-width:1" /><text x="690" y="1930" font-size="10" style="fill:blue">tramo</text><path d="M660 640 C680 640 660 1940 680 1940" style="fill:transparent;stroke:black" /><text x="690" y="1940" font-size="8" style="fill:black">distancia: 267.768835127169</text><text x="690" y="1950" font-size="8" style="fill:black">numerotramo: 14</text><rect x="900" y="1920" width="200" height="40" style="fill:white;stroke:black;stroke-width:1" /><text x="910" y="1930" font-size="10" style="fill:blue">coordenada</text><path d="M880 1940 C900 1940 880 1940 900 1940" style="fill:transparent;stroke:black" /><text x="910" y="1940" font-size="8" style="fill:black">latitud: 31.34167</text><text x="910" y="1950" font-size="8" style="fill:black">longitud: 121.21556</text><text x="910" y="1960" font-size="8" style="fill:black">altitud: 4</text><rect x="680" y="2020" width="200" height="40" style="fill:white;stroke:black;stroke-width:1" /><text x="690" y="2030" font-size="10" style="fill:blue">tramo</text><path d="M660 640 C680 640 660 2040 680 2040" style="fill:transparent;stroke:black" /><text x="690" y="2040" font-size="8" style="fill:black">distancia: 61.67517345994644</text><text x="690" y="2050" font-size="8" style="fill:black">numerotramo: 15</text><rect x="900" y="2020" width="200" height="40" style="fill:white;stroke:black;stroke-width:1" /><text x="910" y="2030" font-size="10" style="fill:blue">coordenada</text><path d="M880 2040 C900 2040 880 2040 900 2040" style="fill:transparent;stroke:black" /><text x="910" y="2040" font-size="8" style="fill:black">latitud: 31.33972</text><text x="910" y="2050" font-size="8" style="fill:black">longitud: 121.21722</text><text x="910" y="2060" font-size="8" style="fill:black">altitud: 4</text><rect x="680" y="2120" width="200" height="40" style="fill:white;stroke:black;stroke-width:1" /><text x="690" y="2130" font-size="10" style="fill:blue">tramo</text><path d="M660 640 C680 640 660 2140 680 2140" style="fill:transparent;stroke:black" /><text x="690" y="2140" font-size="8" style="fill:black">distancia: 105.63236820628225</text><text x="690" y="2150" font-size="8" style="fill:black">numerotramo: 16</text><rect x="900" y="2120" width="200" height="40" style="fill:white;stroke:black;stroke-width:1" /><text x="910" y="2130" font-size="10" style="fill:blue">coordenada</text><path d="M880 2140 C900 2140 880 2140 900 2140" style="fill:transparent;stroke:black" /><text x="910" y="2140" font-size="8" style="fill:black">latitud: 31.33944</text><text x="910" y="2150" font-size="8" style="fill:black">longitud: 121.21778</text><text x="910" y="2160" font-size="8" style="fill:black">altitud: 2</text><rect x="680" y="2220" width="200" height="40" style="fill:white;stroke:black;stroke-width:1" /><text x="690" y="2230" font-size="10" style="fill:blue">tramo</text><path d="M660 640 C680 640 660 2240 680 2240" style="fill:transparent;stroke:black" /><text x="690" y="2240" font-size="8" style="fill:black">distancia: 81.20768309282451</text><text x="690" y="2250" font-size="8" style="fill:black">numerotramo: 17</text><rect x="900" y="2220" width="200" height="40" style="fill:white;stroke:black;stroke-width:1" /><text x="910" y="2230" font-size="10" style="fill:blue">coordenada</text><path d="M880 2240 C900 2240 880 2240 900 2240" style="fill:transparent;stroke:black" /><text x="910" y="2240" font-size="8" style="fill:black">latitud: 31.33944</text><text x="910" y="2250" font-size="8" style="fill:black">longitud: 121.21889</text><text x="910" y="2260" font-size="8" style="fill:black">altitud: 5</text><rect x="680" y="2320" width="200" height="40" style="fill:white;stroke:black;stroke-width:1" /><text x="690" y="2330" font-size="10" style="fill:blue">tramo</text><path d="M660 640 C680 640 660 2340 680 2340" style="fill:transparent;stroke:black" /><text x="690" y="2340" font-size="8" style="fill:black">distancia: 95.80645314211637</text><text x="690" y="2350" font-size="8" style="fill:black">numerotramo: 18</text><rect x="900" y="2320" width="200" height="40" style="fill:white;stroke:black;stroke-width:1" /><text x="910" y="2330" font-size="10" style="fill:blue">coordenada</text><path d="M880 2340 C900 2340 880 2340 900 2340" style="fill:transparent;stroke:black" /><text x="910" y="2340" font-size="8" style="fill:black">latitud: 31.34000</text><text x="910" y="2350" font-size="8" style="fill:black">longitud: 121.21944</text><text x="910" y="2360" font-size="8" style="fill:black">altitud: 5</text><rect x="680" y="2420" width="200" height="40" style="fill:white;stroke:black;stroke-width:1" /><text x="690" y="2430" font-size="10" style="fill:blue">tramo</text><path d="M660 640 C680 640 660 2440 680 2440" style="fill:transparent;stroke:black" /><text x="690" y="2440" font-size="8" style="fill:black">distancia: 85.75357932065403</text><text x="690" y="2450" font-size="8" style="fill:black">numerotramo: 19</text><rect x="900" y="2420" width="200" height="40" style="fill:white;stroke:black;stroke-width:1" /><text x="910" y="2430" font-size="10" style="fill:blue">coordenada</text><path d="M880 2440 C900 2440 880 2440 900 2440" style="fill:transparent;stroke:black" /><text x="910" y="2440" font-size="8" style="fill:black">latitud: 31.34083</text><text x="910" y="2450" font-size="8" style="fill:black">longitud: 121.21972</text><text x="910" y="2460" font-size="8" style="fill:black">altitud: 4</text><rect x="680" y="2520" width="200" height="40" style="fill:white;stroke:black;stroke-width:1" /><text x="690" y="2530" font-size="10" style="fill:blue">tramo</text><path d="M660 640 C680 640 660 2540 680 2540" style="fill:transparent;stroke:black" /><text x="690" y="2540" font-size="8" style="fill:black">distancia: 60.854111523842704</text><text x="690" y="2550" font-size="8" style="fill:black">numerotramo: 20</text><rect x="900" y="2520" width="200" height="40" style="fill:white;stroke:black;stroke-width:1" /><text x="910" y="2530" font-size="10" style="fill:blue">coordenada</text><path d="M880 2540 C900 2540 880 2540 900 2540" style="fill:transparent;stroke:black" /><text x="910" y="2540" font-size="8" style="fill:black">latitud: 31.34111</text><text x="910" y="2550" font-size="8" style="fill:black">longitud: 121.22056</text><text x="910" y="2560" font-size="8" style="fill:black">altitud: 5</text><rect x="680" y="2620" width="200" height="40" style="fill:white;stroke:black;stroke-width:1" /><text x="690" y="2630" font-size="10" style="fill:blue">tramo</text><path d="M660 640 C680 640 660 2640 680 2640" style="fill:transparent;stroke:black" /><text x="690" y="2640" font-size="8" style="fill:black">distancia: 106.34312826210437</text><text x="690" y="2650" font-size="8" style="fill:black">numerotramo: 21</text><rect x="900" y="2620" width="200" height="40" style="fill:white;stroke:black;stroke-width:1" /><text x="910" y="2630" font-size="10" style="fill:blue">coordenada</text><path d="M880 2640 C900 2640 880 2640 900 2640" style="fill:transparent;stroke:black" /><text x="910" y="2640" font-size="8" style="fill:black">latitud: 31.34083</text><text x="910" y="2650" font-size="8" style="fill:black">longitud: 121.22111</text><text x="910" y="2660" font-size="8" style="fill:black">altitud: 4</text><rect x="680" y="2720" width="200" height="40" style="fill:white;stroke:black;stroke-width:1" /><text x="690" y="2730" font-size="10" style="fill:blue">tramo</text><path d="M660 640 C680 640 660 2740 680 2740" style="fill:transparent;stroke:black" /><text x="690" y="2740" font-size="8" style="fill:black">distancia: 25.69420765319354</text><text x="690" y="2750" font-size="8" style="fill:black">numerotramo: 22</text><rect x="900" y="2720" width="200" height="40" style="fill:white;stroke:black;stroke-width:1" /><text x="910" y="2730" font-size="10" style="fill:blue">coordenada</text><path d="M880 2740 C900 2740 880 2740 900 2740" style="fill:transparent;stroke:black" /><text x="910" y="2740" font-size="8" style="fill:black">latitud: 31.34000</text><text x="910" y="2750" font-size="8" style="fill:black">longitud: 121.22167</text><text x="910" y="2760" font-size="8" style="fill:black">altitud: 5</text><rect x="680" y="2820" width="200" height="40" style="fill:white;stroke:black;stroke-width:1" /><text x="690" y="2830" font-size="10" style="fill:blue">tramo</text><path d="M660 640 C680 640 660 2840 680 2840" style="fill:transparent;stroke:black" /><text x="690" y="2840" font-size="8" style="fill:black">distancia: 81.82407059337945</text><text x="690" y="2850" font-size="8" style="fill:black">numerotramo: 23</text><rect x="900" y="2820" width="200" height="40" style="fill:white;stroke:black;stroke-width:1" /><text x="910" y="2830" font-size="10" style="fill:blue">coordenada</text><path d="M880 2840 C900 2840 880 2840 900 2840" style="fill:transparent;stroke:black" /><text x="910" y="2840" font-size="8" style="fill:black">latitud: 31.34000</text><text x="910" y="2850" font-size="8" style="fill:black">longitud: 121.22194</text><text x="910" y="2860" font-size="8" style="fill:black">altitud: 6</text><rect x="680" y="2920" width="200" height="40" style="fill:white;stroke:black;stroke-width:1" /><text x="690" y="2930" font-size="10" style="fill:blue">tramo</text><path d="M660 640 C680 640 660 2940 680 2940" style="fill:transparent;stroke:black" /><text x="690" y="2940" font-size="8" style="fill:black">distancia: 465.62446887398494</text><text x="690" y="2950" font-size="8" style="fill:black">numerotramo: 24</text><rect x="900" y="2920" width="200" height="40" style="fill:white;stroke:black;stroke-width:1" /><text x="910" y="2930" font-size="10" style="fill:blue">coordenada</text><path d="M880 2940 C900 2940 880 2940 900 2940" style="fill:transparent;stroke:black" /><text x="910" y="2940" font-size="8" style="fill:black">latitud: 31.34056</text><text x="910" y="2950" font-size="8" style="fill:black">longitud: 121.22250</text><text x="910" y="2960" font-size="8" style="fill:black">altitud: 6</text><rect x="680" y="3020" width="200" height="40" style="fill:white;stroke:black;stroke-width:1" /><text x="690" y="3030" font-size="10" style="fill:blue">tramo</text><path d="M660 640 C680 640 660 3040 680 3040" style="fill:transparent;stroke:black" /><text x="690" y="3040" font-size="8" style="fill:black">distancia: 61.67301694697237</text><text x="690" y="3050" font-size="8" style="fill:black">numerotramo: 25</text><rect x="900" y="3020" width="200" height="40" style="fill:white;stroke:black;stroke-width:1" /><text x="910" y="3030" font-size="10" style="fill:blue">coordenada</text><path d="M880 3040 C900 3040 880 3040 900 3040" style="fill:transparent;stroke:black" /><text x="910" y="3040" font-size="8" style="fill:black">latitud: 31.34417</text><text x="910" y="3050" font-size="8" style="fill:black">longitud: 121.22000</text><text x="910" y="3060" font-size="8" style="fill:black">altitud: 4</text><rect x="680" y="3120" width="200" height="40" style="fill:white;stroke:black;stroke-width:1" /><text x="690" y="3130" font-size="10" style="fill:blue">tramo</text><path d="M660 640 C680 640 660 3140 680 3140" style="fill:transparent;stroke:black" /><text x="690" y="3140" font-size="8" style="fill:black">distancia: 60.85266206606309</text><text x="690" y="3150" font-size="8" style="fill:black">numerotramo: 26</text><rect x="900" y="3120" width="200" height="40" style="fill:white;stroke:black;stroke-width:1" /><text x="910" y="3130" font-size="10" style="fill:blue">coordenada</text><path d="M880 3140 C900 3140 880 3140 900 3140" style="fill:transparent;stroke:black" /><text x="910" y="3140" font-size="8" style="fill:black">latitud: 31.34389</text><text x="910" y="3150" font-size="8" style="fill:black">longitud: 121.21944</text><text x="910" y="3160" font-size="8" style="fill:black">altitud: 3</text><rect x="680" y="3220" width="200" height="40" style="fill:white;stroke:black;stroke-width:1" /><text x="690" y="3230" font-size="10" style="fill:blue">tramo</text><path d="M660 640 C680 640 660 3240 680 3240" style="fill:transparent;stroke:black" /><text x="690" y="3240" font-size="8" style="fill:black">distancia: 60.98147178480441</text><text x="690" y="3250" font-size="8" style="fill:black">numerotramo: 27</text><rect x="900" y="3220" width="200" height="40" style="fill:white;stroke:black;stroke-width:1" /><text x="910" y="3230" font-size="10" style="fill:blue">coordenada</text><path d="M880 3240 C900 3240 880 3240 900 3240" style="fill:transparent;stroke:black" /><text x="910" y="3240" font-size="8" style="fill:black">latitud: 31.34417</text><text x="910" y="3250" font-size="8" style="fill:black">longitud: 121.21889</text><text x="910" y="3260" font-size="8" style="fill:black">altitud: 4</text><rect x="680" y="3320" width="200" height="40" style="fill:white;stroke:black;stroke-width:1" /><text x="690" y="3330" font-size="10" style="fill:blue">tramo</text><path d="M660 640 C680 640 660 3340 680 3340" style="fill:transparent;stroke:black" /><text x="690" y="3340" font-size="8" style="fill:black">distancia: 40.9112114355922</text><text x="690" y="3350" font-size="8" style="fill:black">numerotramo: 28</text><rect x="900" y="3320" width="200" height="40" style="fill:white;stroke:black;stroke-width:1" /><text x="910" y="3330" font-size="10" style="fill:blue">coordenada</text><path d="M880 3340 C900 3340 880 3340 900 3340" style="fill:transparent;stroke:black" /><text x="910" y="3340" font-size="8" style="fill:black">latitud: 31.34472</text><text x="910" y="3350" font-size="8" style="fill:black">longitud: 121.21889</text><text x="910" y="3360" font-size="8" style="fill:black">altitud: 4</text><rect x="680" y="3420" width="200" height="40" style="fill:white;stroke:black;stroke-width:1" /><text x="690" y="3430" font-size="10" style="fill:blue">tramo</text><path d="M660 640 C680 640 660 3440 680 3440" style="fill:transparent;stroke:black" /><text x="690" y="3440" font-size="8" style="fill:black">distancia: 78.98172034004128</text><text x="690" y="3450" font-size="8" style="fill:black">numerotramo: 29</text><rect x="900" y="3420" width="200" height="40" style="fill:white;stroke:black;stroke-width:1" /><text x="910" y="3430" font-size="10" style="fill:blue">coordenada</text><path d="M880 3440 C900 3440 880 3440 900 3440" style="fill:transparent;stroke:black" /><text x="910" y="3440" font-size="8" style="fill:black">latitud: 31.34500</text><text x="910" y="3450" font-size="8" style="fill:black">longitud: 121.21917</text><text x="910" y="3460" font-size="8" style="fill:black">altitud: 4</text><rect x="680" y="3520" width="200" height="40" style="fill:white;stroke:black;stroke-width:1" /><text x="690" y="3530" font-size="10" style="fill:blue">tramo</text><path d="M660 640 C680 640 660 3540 680 3540" style="fill:transparent;stroke:black" /><text x="690" y="3540" font-size="8" style="fill:black">distancia: 61.67261469410925</text><text x="690" y="3550" font-size="8" style="fill:black">numerotramo: 30</text><rect x="900" y="3520" width="200" height="40" style="fill:white;stroke:black;stroke-width:1" /><text x="910" y="3530" font-size="10" style="fill:blue">coordenada</text><path d="M880 3540 C900 3540 880 3540 900 3540" style="fill:transparent;stroke:black" /><text x="910" y="3540" font-size="8" style="fill:black">latitud: 31.34500</text><text x="910" y="3550" font-size="8" style="fill:black">longitud: 121.22000</text><text x="910" y="3560" font-size="8" style="fill:black">altitud: 4</text><rect x="680" y="3620" width="200" height="40" style="fill:white;stroke:black;stroke-width:1" /><text x="690" y="3630" font-size="10" style="fill:blue">tramo</text><path d="M660 640 C680 640 660 3640 680 3640" style="fill:transparent;stroke:black" /><text x="690" y="3640" font-size="8" style="fill:black">distancia: 1201.5188418968637</text><text x="690" y="3650" font-size="8" style="fill:black">numerotramo: 31</text><rect x="900" y="3620" width="200" height="40" style="fill:white;stroke:black;stroke-width:1" /><text x="910" y="3630" font-size="10" style="fill:blue">coordenada</text><path d="M880 3640 C900 3640 880 3640 900 3640" style="fill:transparent;stroke:black" /><text x="910" y="3640" font-size="8" style="fill:black">latitud: 31.34472</text><text x="910" y="3650" font-size="8" style="fill:black">longitud: 121.22056</text><text x="910" y="3660" font-size="8" style="fill:black">altitud: 5</text><rect x="680" y="3720" width="200" height="40" style="fill:white;stroke:black;stroke-width:1" /><text x="690" y="3730" font-size="10" style="fill:blue">tramo</text><path d="M660 640 C680 640 660 3740 680 3740" style="fill:transparent;stroke:black" /><text x="690" y="3740" font-size="8" style="fill:black">distancia: 40.078034422521604</text><text x="690" y="3750" font-size="8" style="fill:black">numerotramo: 32</text><rect x="900" y="3720" width="200" height="40" style="fill:white;stroke:black;stroke-width:1" /><text x="910" y="3730" font-size="10" style="fill:blue">coordenada</text><path d="M880 3740 C900 3740 880 3740 900 3740" style="fill:transparent;stroke:black" /><text x="910" y="3740" font-size="8" style="fill:black">latitud: 31.33583</text><text x="910" y="3750" font-size="8" style="fill:black">longitud: 121.22778</text><text x="910" y="3760" font-size="8" style="fill:black">altitud: 5</text><rect x="680" y="3820" width="200" height="40" style="fill:white;stroke:black;stroke-width:1" /><text x="690" y="3830" font-size="10" style="fill:blue">tramo</text><path d="M660 640 C680 640 660 3840 680 3840" style="fill:transparent;stroke:black" /><text x="690" y="3840" font-size="8" style="fill:black">distancia: 66.54918118532063</text><text x="690" y="3850" font-size="8" style="fill:black">numerotramo: 33</text><rect x="900" y="3820" width="200" height="40" style="fill:white;stroke:black;stroke-width:1" /><text x="910" y="3830" font-size="10" style="fill:blue">coordenada</text><path d="M880 3840 C900 3840 880 3840 900 3840" style="fill:transparent;stroke:black" /><text x="910" y="3840" font-size="8" style="fill:black">latitud: 31.33556</text><text x="910" y="3850" font-size="8" style="fill:black">longitud: 121.22750</text><text x="910" y="3860" font-size="8" style="fill:black">altitud: 5</text><rect x="680" y="3920" width="200" height="40" style="fill:white;stroke:black;stroke-width:1" /><text x="690" y="3930" font-size="10" style="fill:blue">tramo</text><path d="M660 640 C680 640 660 3940 680 3940" style="fill:transparent;stroke:black" /><text x="690" y="3940" font-size="8" style="fill:black">distancia: 302.29189098236367</text><text x="690" y="3950" font-size="8" style="fill:black">numerotramo: 34</text><rect x="900" y="3920" width="200" height="40" style="fill:white;stroke:black;stroke-width:1" /><text x="910" y="3930" font-size="10" style="fill:blue">coordenada</text><path d="M880 3940 C900 3940 880 3940 900 3940" style="fill:transparent;stroke:black" /><text x="910" y="3940" font-size="8" style="fill:black">latitud: 31.33611</text><text x="910" y="3950" font-size="8" style="fill:black">longitud: 121.22722</text><text x="910" y="3960" font-size="8" style="fill:black">altitud: 4</text><rect x="680" y="4020" width="200" height="40" style="fill:white;stroke:black;stroke-width:1" /><text x="690" y="4030" font-size="10" style="fill:blue">tramo</text><path d="M660 640 C680 640 660 4040 680 4040" style="fill:transparent;stroke:black" /><text x="690" y="4040" font-size="8" style="fill:black">distancia: 789.074510676197</text><text x="690" y="4050" font-size="8" style="fill:black">numerotramo: 35</text><rect x="900" y="4020" width="200" height="40" style="fill:white;stroke:black;stroke-width:1" /><text x="910" y="4030" font-size="10" style="fill:blue">coordenada</text><path d="M880 4040 C900 4040 880 4040 900 4040" style="fill:transparent;stroke:black" /><text x="910" y="4040" font-size="8" style="fill:black">latitud: 31.33806</text><text x="910" y="4050" font-size="8" style="fill:black">longitud: 121.22500</text><text x="910" y="4060" font-size="8" style="fill:black">altitud: 3</text><rect x="680" y="4120" width="200" height="40" style="fill:white;stroke:black;stroke-width:1" /><text x="690" y="4130" font-size="10" style="fill:blue">tramo</text><path d="M660 640 C680 640 660 4140 680 4140" style="fill:transparent;stroke:black" /><text x="690" y="4140" font-size="8" style="fill:black">distancia: 99.78949341053057</text><text x="690" y="4150" font-size="8" style="fill:black">numerotramo: 36</text><rect x="900" y="4120" width="200" height="40" style="fill:white;stroke:black;stroke-width:1" /><text x="910" y="4130" font-size="10" style="fill:blue">coordenada</text><path d="M880 4140 C900 4140 880 4140 900 4140" style="fill:transparent;stroke:black" /><text x="910" y="4140" font-size="8" style="fill:black">latitud: 31.33639</text><text x="910" y="4150" font-size="8" style="fill:black">longitud: 121.21694</text><text x="910" y="4160" font-size="8" style="fill:black">altitud: 3</text><rect x="680" y="4220" width="200" height="40" style="fill:white;stroke:black;stroke-width:1" /><text x="690" y="4230" font-size="10" style="fill:blue">tramo</text><path d="M660 640 C680 640 660 4240 680 4240" style="fill:transparent;stroke:black" /><text x="690" y="4240" font-size="8" style="fill:black">distancia: 31.04507724140957</text><text x="690" y="4250" font-size="8" style="fill:black">numerotramo: 37</text><rect x="900" y="4220" width="200" height="40" style="fill:white;stroke:black;stroke-width:1" /><text x="910" y="4230" font-size="10" style="fill:blue">coordenada</text><path d="M880 4240 C900 4240 880 4240 900 4240" style="fill:transparent;stroke:black" /><text x="910" y="4240" font-size="8" style="fill:black">latitud: 31.33694</text><text x="910" y="4250" font-size="8" style="fill:black">longitud: 121.21611</text><text x="910" y="4260" font-size="8" style="fill:black">altitud: 4</text><rect x="680" y="4320" width="200" height="40" style="fill:white;stroke:black;stroke-width:1" /><text x="690" y="4330" font-size="10" style="fill:blue">tramo</text><path d="M660 640 C680 640 660 4340 680 4340" style="fill:transparent;stroke:black" /><text x="690" y="4340" font-size="8" style="fill:black">distancia: 31.045078597548347</text><text x="690" y="4350" font-size="8" style="fill:black">numerotramo: 38</text><rect x="900" y="4320" width="200" height="40" style="fill:white;stroke:black;stroke-width:1" /><text x="910" y="4330" font-size="10" style="fill:blue">coordenada</text><path d="M880 4340 C900 4340 880 4340 900 4340" style="fill:transparent;stroke:black" /><text x="910" y="4340" font-size="8" style="fill:black">latitud: 31.33722</text><text x="910" y="4350" font-size="8" style="fill:black">longitud: 121.21611</text><text x="910" y="4360" font-size="8" style="fill:black">altitud: 4</text><rect x="680" y="4420" width="200" height="40" style="fill:white;stroke:black;stroke-width:1" /><text x="690" y="4430" font-size="10" style="fill:blue">tramo</text><path d="M660 640 C680 640 660 4440 680 4440" style="fill:transparent;stroke:black" /><text x="690" y="4440" font-size="8" style="fill:black">distancia: 40.912510150361804</text><text x="690" y="4450" font-size="8" style="fill:black">numerotramo: 39</text><rect x="900" y="4420" width="200" height="40" style="fill:white;stroke:black;stroke-width:1" /><text x="910" y="4430" font-size="10" style="fill:blue">coordenada</text><path d="M880 4440 C900 4440 880 4440 900 4440" style="fill:transparent;stroke:black" /><text x="910" y="4440" font-size="8" style="fill:black">latitud: 31.33750</text><text x="910" y="4450" font-size="8" style="fill:black">longitud: 121.21611</text><text x="910" y="4460" font-size="8" style="fill:black">altitud: 4</text><rect x="680" y="4520" width="200" height="40" style="fill:white;stroke:black;stroke-width:1" /><text x="690" y="4530" font-size="10" style="fill:blue">tramo</text><path d="M660 640 C680 640 660 4540 680 4540" style="fill:transparent;stroke:black" /><text x="690" y="4540" font-size="8" style="fill:black">distancia: 40.078034422521604</text><text x="690" y="4550" font-size="8" style="fill:black">numerotramo: 40</text><rect x="900" y="4520" width="200" height="40" style="fill:white;stroke:black;stroke-width:1" /><text x="910" y="4530" font-size="10" style="fill:blue">coordenada</text><path d="M880 4540 C900 4540 880 4540 900 4540" style="fill:transparent;stroke:black" /><text x="910" y="4540" font-size="8" style="fill:black">latitud: 31.33778</text><text x="910" y="4550" font-size="8" style="fill:black">longitud: 121.21639</text><text x="910" y="4560" font-size="8" style="fill:black">altitud: 4</text></svg>