<?xml version='1.0' encoding='utf-8'?>
<svg width="auto" height="4000" style="overflow:visible" version="1.1" xmlns="http://www.w3.org/2000/svg"><polyline points="26.646470590575074,800.0 52.34128151821581,600.0 83.38636147049253,400.0 114.43144006804087,400.0 155.3440509416896,400.0 181.99075824348333,400.0 222.90336911713206,400.0 284.9935276669899,400.0 447.18191163130035,600.0 587.2786916979932,800.0 846.0766823521467,800.0 872.7219805821815,800.0 933.8454672778222,800.0 1201.6143024049911,800.0 1263.2894758649375,800.0 1368.9218440712198,400.0 1450.1295271640442,1000.0 1545.9359803061607,1000.0 1631.6895596268148,800.0 1692.5436711506575,1000.0 1798.8867994127618,800.0 1824.5810070659554,1000.0 1906.405077659335,1200.0 2372.0295465333197,1200.0 2433.702563480292,800.0 2494.5552255463554,600.0 2555.5366973311598,800.0 2596.447908766752,800.0 2675.429629106793,800.0 2737.102243800902,800.0 3938.621085697766,1000.0 3978.6991201202877,1000.0 4045.2483013056085,1000.0 4347.540192287972,800.0 5136.614702964169,600.0 5236.4041963746995,600.0 5267.449273616109,800.0 5298.494352213657,800.0 5339.406862364019,800.0 5379.48489678654,800.0" stroke="red" fill="white" stroke_width="4" /></svg>